<mxfile host="app.diagrams.net" modified="2023-06-18T10:07:25.933Z" agent="Mozilla/5.0 (Macintosh; Intel Mac OS X 10_15_7) AppleWebKit/605.1.15 (KHTML, like Gecko) Version/16.5 Safari/605.1.15" version="21.4.0" etag="AHLbpZ-9shB8Ily-uR4d" type="github">
  <diagram name="第 1 页" id="-gMaRvMxoEYFehouByGR">
    <mxGraphModel>
      <root>
        <mxCell id="0" />
        <mxCell id="1" parent="0" />
      </root>
    </mxGraphModel>
  </diagram>
</mxfile>
